<svg id="Layer_1" data-name="Layer 1" xmlns="http://www.w3.org/2000/svg" viewBox="0 0 112 120"><defs><style>.cls-1{fill:#bc1339;}.cls-2{fill:#008acf;}.cls-3{fill:#3c9148;}</style></defs><title>Untitled-2</title><path class="cls-1" d="M66.93,17.39a2.67,2.67,0,0,1,.54,1c.33,1,1.27,1.62,1.38,2.65,0,.35.49.48.72.64.25.32.08.68.56,1.16.23.15.06.51.1.86l.7.45a9.15,9.15,0,0,1-.14,10.62,3.83,3.83,0,0,0-.91,1.48c-.2.19-.61.41-.81.6,0,.35.28.5.53.82-1,.27-1.17,1.15-2,1.75l-.85.08A10.53,10.53,0,0,1,65,40.72c-.19.19-.14.71-.12.88a6.38,6.38,0,0,1-4,1.24c-.21,0-.37.56-.59.57-1.07.11-2.37.05-3.45.16-.45-.14-.7-.46-1.15-.59a3.37,3.37,0,0,1-1.3,0,11.94,11.94,0,0,0-2.26-.83c-.45-.14-1.27.28-1.74,0a18.66,18.66,0,0,1-3.67-3.83c-.52-.82-1.42-1.08-1.73-1.92,0-.35.13-.88-.33-1-.9-.27-.52-.82-.58-1.34a4.17,4.17,0,0,0-.79-1.32c-.28-.49.08-1.22-.21-1.89,0-.17.18-.37.16-.54-.33-1,.2-2.1.1-3a5.21,5.21,0,0,1,.24-1.77,15.3,15.3,0,0,1,2-3.49l-.08-.69c.2-.19.41-.21.61-.4a8.36,8.36,0,0,1,1.26-2.38,39.87,39.87,0,0,1,2.95-2.71,9.31,9.31,0,0,0,2-1.93c.2-.19.88.1,1.08-.09.58-.58,1.46-.49,2.07-.89s.48.47,1.1.24a2.61,2.61,0,0,0,1-.44c.62-.23,1.32.22,2,.33a3,3,0,0,1,2,.51c.94.61,3.08.4,3.43,1.59C65.47,16,66.4,16.58,66.93,17.39Z"/><path class="cls-2" d="M103.24,31a3.79,3.79,0,0,0-.21-1.43c-.06-.54.36-1.14.18-1.87-.13-.2-.4-.43-.37-.6a8.35,8.35,0,0,0,.31-3.39,2.69,2.69,0,0,0-.34-.77l.15-.83a7.69,7.69,0,0,0-.6-2.74,5,5,0,0,1-.43-1.13c-.12-.2-.39-.43-.37-.6.28-1.5-.45-2.7-.67-4.13-.33-1.63-1.88-2.66-2.37-4.32,0-.17.53-.1.69-.07,1.21,1.13,2.55,2.46,2.89,4.1.21.57.12,1.06.36,1.46a8.2,8.2,0,0,1,1.4,4.46c0,.17.3.07.43.28a1,1,0,0,0,0,.69c.79.87.3,1.8.46,2.7a2.09,2.09,0,0,0,.33.76c0,.17-.43.61-.46.77a3.84,3.84,0,0,1,.74,2.93c.72.34.39,1.3.57,2a.56.56,0,0,0,.43.27,2.51,2.51,0,0,0,.48-.93,14.77,14.77,0,0,0-.09-3.83,1.38,1.38,0,0,1,.12-1.53c-.31-.07-.4-.44-.52-.64-.54-2.2-.77-4.66-1.42-6.91a.57.57,0,0,0,.21-.29c-.23-2-1.73-3.83-2.44-5.81-.11-.35-.69-.78-1-1.16l0-.33a2.93,2.93,0,0,1,1.76,1.42,10.64,10.64,0,0,1,2,3.66,30.25,30.25,0,0,1,1.3,3.43,6.68,6.68,0,0,0,1.06,1.83,5.9,5.9,0,0,1,.15,1.6c.21,1.27.6,2.5.84,3.77a4.41,4.41,0,0,1,.12,2.79c-.42,1.47.55,3.07.95,4.37a2.15,2.15,0,0,1-.3,1.66c0,.17.24.4.21.57-.28.63-.06,1.2-.19,1.87-.17.13.22.56,0,.86-.18.13-.33.1-.52.24-.24.46,0,1-.12,1.53-.48.93-.24,2.19-1.15,2.86-.34.1-.37.27-.55.4.15,0,.28.23.4.43-.19.13-.34.1-.52.23-.06.34.58.75.71.94-.25,1.34-1.24,2.5-1.22,4.07-.06.33-.15.83-.2,1.17-.31.79-.89,1.36-1.19,2.16-.06.33-.7.37-.76.7-.39.43-.36,1.13-.64,1.77-.21.3-.66.2-1,.46a7.63,7.63,0,0,0-.63,1.77c-.46.76-1,1.59-1.47,2.35a9.54,9.54,0,0,1-2.32,3,1.09,1.09,0,0,0-.67.21,4.19,4.19,0,0,1-2.07,2.1c-.15,0-.38.69-.56.82a19.72,19.72,0,0,1-2,1.63c-.32.1-.5.24-.86-.36a17.61,17.61,0,0,1-4.27,4.93c-.85.5-1.72.45-2.29,1a46.72,46.72,0,0,1-5.16,4c-.14,0-.71.82-.71.82-.61,0-.26.1-.81,0,0,0,0,.94-.79,1.1-1.6.32-2,2.18-2.15,3-.06.38-.33.12-.51.27s-.06.38-.24.54A10.21,10.21,0,0,0,73.52,82c-.18.16-.3-.07-.48.09a6.43,6.43,0,0,0-1.34,2.13,16.65,16.65,0,0,1-2.54,4.22c-.24.28.57,1.37.51,1.74-.23.51-.69.59-.92,1.11-.21,1.27-.27,2.69-.49,4s.09,2.25.27,3.43a23.07,23.07,0,0,1,0,3.22c.07.77.59,1.62.51,2.37,0,1.15-.24,1,0,2a5.17,5.17,0,0,0-.09,1.52c0,.76-.16,1.23-.2,2-.17.18-.5.54-.5.73a7.75,7.75,0,0,1-2.66,4.81c-.8.51-1.5,1.3-2.42,1.23a22.73,22.73,0,0,0-2.51,1.07,8.43,8.43,0,0,1-3.75.22,5.36,5.36,0,0,1-3.58-2.23c-.58-.66-1.6-.41-2-1.42-.12-.4-1-.61-1.09-.82a11.34,11.34,0,0,1-1.71-2.34c-.38-1-.11-1.69-.56-2.66-.48-.61-.68-1-1.15-1.63-.63-.79.15-1.94-.32-2.72a2.24,2.24,0,0,1-.78-1c-.3-.78-.23-1.91-.7-2.73a23.07,23.07,0,0,1,.1-5.51c0-.2-.52-.47-.49-.67A30.1,30.1,0,0,0,45.11,90c.15-.77.08-1.39.77-2,0,0-.33-.27-.29-.46a18.56,18.56,0,0,0,.62-3.14c0-.19.44-.31.48-.5a9.92,9.92,0,0,1-.09-3.34c.07-.39,1.07-1,1.3-1.31a2.22,2.22,0,0,1,.23-1.35c.1-.16.36-.11.55-.27,0-.19-.1-.42-.07-.61.1-.58,1.07-1,1.14-1.38a10.39,10.39,0,0,1,1.73-2.92,5.59,5.59,0,0,1,.75-1.4c.19-.13.28,0,.31-.17s-.06-.54,0-.7c.38-.44.92-.83,1-1.33a5.21,5.21,0,0,1,.9-1.54,6.49,6.49,0,0,0,1.86-1.83c.39-.44.83-.33,1.22-.77.56-.56.71-1.39,1.13-2a16.91,16.91,0,0,1,3.11-2.77,24.83,24.83,0,0,1,2.87-1.44c.89-.66,1.43-1.93,2.29-2.43.53-.4,1.15-.43,1.69-.83s1-1.17,1.78-1.34a7.61,7.61,0,0,0,2.16-.63c1-.63.61-.81,1.64-1.44a29.28,29.28,0,0,1,2.76-1.61.87.87,0,0,0,.42-.59,13,13,0,0,1,2.94-2.25c.33-.1.72.33,1.1-.1.21-.3-.21-.57,0-.87A18.45,18.45,0,0,1,83,44.93c.18-.13.61.13.94,0s.24-.46.42-.59c.22-.3-.18-.74,0-1,.25-.47.49-.93.82-1,.52-.23,1.22-.6,1.13-1a2.16,2.16,0,0,1,1.09-1.67l.09-.5c.39-.44.76-.7,1.15-1.13.43-.6.24-1.33.49-1.8A5.65,5.65,0,0,0,91,33.51c-.06-.54-.4-1.3-.16-1.77.21-.3.88-.5.94-.83a9.87,9.87,0,0,0-.24-2.13c.09-.5.64-.9.57-1.43a37.15,37.15,0,0,0-.17-4.2c.48-.07.54-.4.6-.73a27.5,27.5,0,0,0-1-3.17c0-.7.54-1.26.51-2a3,3,0,0,0-1.13-1.64c-.51-.63-.17-1.59-.36-2.32-.15-.9-.82-1.57-.94-2.63-.06-.54-.7-.51-.92-1.07a9.48,9.48,0,0,1-.36-2.34c-.09-.36-.57-.29-.85-.53-.61-1-.4-3-1.73-3.49.12-.67-.49-.81-.7-1.37a2,2,0,0,1,2,1.3c.13.2.58.3.73.33.4.44.37,1.47.79,1.74.55.46,1.37.3,1.58.86.3.93,1,1.43,1.34,2.2a1.38,1.38,0,0,0,.18.73c.55.47.61,1,1,1.43.91,1.07,1.83,2.14,1.4,3.6-.27.63.55.47.79.86.61,1,.37,2.34,1.16,3.2-.15,1.7.67,3.27,1.18,4.77-.88,1.36-.39,3.75.31,5.12,0,0,.49-.06.52-.23.15-.84,1.67-1.11,1.42-1.51a17.46,17.46,0,0,1-.76-3.75,17.89,17.89,0,0,0-.06-4l-.37-.6a5.33,5.33,0,0,1-.21-2.3c-.09-.36-.37-.59-.46-1,0-.17.09-.5.13-.67.33-.1.75.17,1.06.24.27.23,0,.69.15.89.48.81,1.22,1.14,1.37,2,0,.16-.1.5-.12.66.12,1.07.76,1.9.91,2.8.06.53-.39,1.3-.18,1.87a8.24,8.24,0,0,1,.61,4.46c-.12.66.72,1.2.48,1.66s.07.54-.18,1c0,.17-.36.27-.39.44.45,1-.23,2.43-.39,3.26,0,.17.52.34.64-.27.06-.37.69-.36,1-.46A1.93,1.93,0,0,0,103.24,31Zm3.27,3.33c0-.85.43-1.47.27-2.37s-1,0-1.47.07a4.51,4.51,0,0,1-.52,2.82c-.21.3-.36,1.14.13,1.07C105.68,36.1,106.49,35.37,106.51,34.34Zm-1.3,4.56a.89.89,0,0,0-.17-1c-.43-.26-1,.14-1.22.6s-.06,1.2.58,1.17C104.55,39.66,105,39.2,105.21,38.9Z"/><path class="cls-2" d="M96.28,10.48A11.47,11.47,0,0,1,98,13l-.06.33c-1.12,1-2.09-.63-2.4-1.56a7.31,7.31,0,0,0-1.73-2.63l.09-.5c-.39-.44-.91-1.07-.39-1.3.2-.3.57.3,1,.56C95.19,8.69,95.31,9.75,96.28,10.48Z"/><path class="cls-2" d="M100.88,6.21c0,.17-.26.45-.3.62A7.08,7.08,0,0,1,99.06,5a1,1,0,0,1-.57-.33c-.14,0-.11-.21-.07-.37.48,0,.86.4,1.28.69.15,0,.34-.09.49,0A1.58,1.58,0,0,1,100.88,6.21Z"/><path class="cls-3" d="M32.34,36.86a3.48,3.48,0,0,1,.48.46.74.74,0,0,0,.76.06c.25,0,.48.67.73.69s.6.82,1,1.13c.24.16.49.39.74.55a7.57,7.57,0,0,0,.93,1.2c.23.29.61.19.87.21.5.18.7.89,1,1.34.13,0,.35.45.34.59a5.36,5.36,0,0,0,.85.62c.1.16.09.43.2.58.92,1.48,2.12,2.41,2.9,4a1.59,1.59,0,0,1,.09.43c.95.92,1.37,2.21,2.18,3.25a17.83,17.83,0,0,1,.63,1.73c.24.3.48.46.71.76a5.47,5.47,0,0,1,.75,2c0,.28-.21,1.1-.69.64s-.53-1.44-1.13-1.91a1.36,1.36,0,0,0-.27-.64c-.24-.29-.68-.28-.78-.7s-.43-.76-.68-1.05c-.6-.86-1.47-1.18-2.2-2a.41.41,0,0,0-.39.12c-.13.27-.53.67-.17,1.1s.73.88,1.35,1.18c.37.3.47,1.14.69,1.85a2.37,2.37,0,0,0,.86.74c.37.29.22.74.57,1.19,0,.14-.14.26-.16.4.23.44.74.34,1.1.79.27-.26.64,0,.86.35-.41.39-.3.67-.46,1.09-.43.66.54,1.29,1.15,1.62.38,0,.33.73.69,1s.85.49,1.19,1.08c.11.29-.15.41-.3.68s.46.59.7.75a1.42,1.42,0,0,1,.46.74c-.39.11-1.14-.41-1.52-.44s-.69-.66-1.18-.77c-.17,0-.28.37-.47.33L46,64.47c-.27,0-.91-.75-1.19-.8s-.71.53-1,.48a4.39,4.39,0,0,1-1.55-.43,7.94,7.94,0,0,1-1.21-.58c-.24-.13-.17-.46-.4-.61s-.74-.15-1-.29c-.91-.56-1.78-1.83-2.56-2.24-.52-.26-.95-.52-1.52-.8-.28-.18-.48-.56-.83-.68-1.08-.36-1.94-1.05-3.16-1.39-2.32-.66-4.25.67-6.14,1.65a.7.7,0,0,0-.4,0,14.08,14.08,0,0,1-1.38.86,17.47,17.47,0,0,1-2.05,1c-.21.12-.22.5-.43.62s-.85.22-1.15.41-.31.5-.58.69a8.15,8.15,0,0,1-1.8,1.14,30.69,30.69,0,0,1-4.48.82c-.9,0-1.52.75-2.86.75-2,0-4.06,0-5.76-1.31-.35-.31-.42-1.15-.66-1.31C3.19,62,3.26,61,3.06,60.29c-.24-.16-.75-.2-.72-.62A10.49,10.49,0,0,1,4.9,54.29c.3-.54.95-.77,1-1.46A20,20,0,0,1,7.72,50.6c.14-.27-.08-.71.07-1,1-2,2.92-3.4,4.45-5.23.41-.39.71-.92,1.35-1,.26,0,.51,0,.65-.23a3.08,3.08,0,0,1,1.25-1.3c1.47-1,2.7-2.51,4.38-2.79.26-.12.41-.38.68-.5s.76.06,1-.06c1.25-.56,2.39-1.77,3.67-1.95.26-.11.41-.38.54-.38,1.14.1,2.48-.91,3.55.16A4.17,4.17,0,0,1,32.34,36.86Zm8.72,12.21c0-.14,0-.28,0-.42-.5-.3-.72-1.15-1.34-1.32-.13,0-.39.12-.4.26A4.19,4.19,0,0,0,40,49.71c.15-.54.53-.53.77-.1A1,1,0,0,0,41.06,49.07Z"/></svg>