<svg id="Layer_1" data-name="Layer 1" xmlns="http://www.w3.org/2000/svg" viewBox="0 0 229 120"><defs><style>.cls-1{fill:#000111;}</style></defs><title>font</title><path class="cls-1" d="M17.66,9.37a45.38,45.38,0,0,1-1.52,11.9L28.81,36.45,25,39.77,14.27,26.7A40.4,40.4,0,0,1,3.83,40.77L.09,37.38q12.2-10.8,12.2-28.66V6.51h5.37ZM39.78,55.59H34.53V23.49h-11V18.82h11V1.14h5.25Z"/><path class="cls-1" d="M65.52,34.41V29.85H45.73V25.24H90.56v4.61H70.77v4.56H81.69V47.6h-22v4.26H82.85v4.61H54.49V43.1h22V39H54.14V34.41Zm16-22.48a9.36,9.36,0,0,1-1,4.21,9.93,9.93,0,0,1-2.83,3.44,13.22,13.22,0,0,1-4.32,2.25,17.68,17.68,0,0,1-5.26.79,17.61,17.61,0,0,1-5.25-.79,13.22,13.22,0,0,1-4.32-2.25,9.93,9.93,0,0,1-2.83-3.44,9.36,9.36,0,0,1-1-4.21,9.14,9.14,0,0,1,1-4.17,10.61,10.61,0,0,1,2.83-3.47A13.22,13.22,0,0,1,62.89,2,17.87,17.87,0,0,1,73.4,2a13.22,13.22,0,0,1,4.32,2.25,10.61,10.61,0,0,1,2.83,3.47A9.14,9.14,0,0,1,81.57,11.93Zm-5.31,0a5.21,5.21,0,0,0-2.34-4.31,10.35,10.35,0,0,0-11.55,0,5.15,5.15,0,0,0,0,8.63A9.31,9.31,0,0,0,68.14,18,9.31,9.31,0,0,0,74,16.25,5.23,5.23,0,0,0,76.26,11.93Z"/><path class="cls-1" d="M120,29.56h-25V4.81h5.31V24.89H120Zm10,26.62H104.39V35.86H130Zm-5.19-4.62V40.48H109.58V51.56Zm13.54-32.21H130V33.3h-5.25V1.14H130V14.33h8.35Z"/><path class="cls-1" d="M157,7.62A31.38,31.38,0,0,1,155.52,17l12.25,13.31L164,33.7,153.53,22a35,35,0,0,1-10.62,12.84l-3.44-3.27a33.9,33.9,0,0,0,9.19-11.38,30.46,30.46,0,0,0,3-13V4.35H157Zm21.3,48.26H150.85V37.73h5.25V51.21h22.18Zm7.3-35.25h-8.35V40.71H172V1.14h5.25V15.67h8.35Z"/><path class="cls-1" d="M203.84,26.93l8.41,10.45-3.74,3.1L201,31.14a59.9,59.9,0,0,1-10.62,10.44L187,38.14a46.7,46.7,0,0,0,10.18-10,28.55,28.55,0,0,0,4.93-9.8H189.37V13.63h19A35.57,35.57,0,0,1,203.84,26.93Zm2-17.21h-6.48a15.07,15.07,0,0,1-7.7-2.4l1.51-3.91A19.17,19.17,0,0,0,199.76,5h6.07Zm1.63,13.83h6.72V2.3h5.07V52h-5.07V28.22h-6.72Zm21.54,32h-5.14V1.14H229Z"/><path class="cls-1" d="M18.68,74.81a31.07,31.07,0,0,1-3.11,10.33L26.83,96.46a3.44,3.44,0,0,1,1.09,2.2,2,2,0,0,1-.68,2,2.38,2.38,0,0,1-2.26.53,4.35,4.35,0,0,1-2-1.41L13.75,88.6a1.29,1.29,0,0,1-.18.35,48.78,48.78,0,0,1-10.5,13,1.8,1.8,0,0,1-2.38.26C0,101.71,0,101,.84,100A50.77,50.77,0,0,0,9.38,87.1q3.19-7,3.66-11.41a1,1,0,0,0-.52-1,5.57,5.57,0,0,0-1.65-.58c-1-.2-1.5-.74-1.46-1.62s.62-1.32,1.76-1.32H15.1a3.61,3.61,0,0,1,2.93,1A3.77,3.77,0,0,1,18.68,74.81Zm15-5a3.37,3.37,0,0,0-.47-2.14,3.37,3.37,0,0,0-1.58-.79,9.24,9.24,0,0,1-1.88-.64A1.18,1.18,0,0,1,29,65.13c0-1.06.67-1.58,2-1.58h5.16A2.15,2.15,0,0,1,38.63,66V113q0,5.4-3.82,5.4H33.64V86.61H24.25c-1.21,0-1.82-.71-1.82-2.12s.61-2,1.82-2h9.39Z"/><path class="cls-1" d="M70,93.53A8.48,8.48,0,0,1,69.37,97h9.8c1.37,0,2,.86,2,2.58v7.1c0,2-.76,3-2.28,3H59.63V113q0,1.41,1.35,1.41H81.17c1.21,0,1.81.7,1.81,2.11s-.62,2-1.87,2H58.28c-2.42,0-3.64-1.44-3.64-4.34v-3a2.91,2.91,0,0,0-.35-1.73,2.51,2.51,0,0,0-1.17-.74,9.79,9.79,0,0,1-1-.55,1.21,1.21,0,0,1-.5-1.09c0-1,.53-1.52,1.59-1.52h23V101.1H54.82c-1.21,0-1.82-.67-1.82-2S53.61,97,54.82,97H65V92.12H46.72c-1.17,0-1.76-.7-1.76-2.11S45.55,88,46.72,88H88C89.32,88,90,88.64,90,90s-.65,2.11-1.94,2.11H70ZM54.41,75.11a9.5,9.5,0,0,1,3.73-7.57,14,14,0,0,1,9.3-3.11,14,14,0,0,1,9.27,3.11,9.49,9.49,0,0,1,3.75,7.57,9.24,9.24,0,0,1-3.75,7.39,14.27,14.27,0,0,1-9.27,3,14.2,14.2,0,0,1-9.3-3A9.25,9.25,0,0,1,54.41,75.11Zm5.05,0a5.46,5.46,0,0,0,2.23,4.31,8.71,8.71,0,0,0,5.75,1.85,8.77,8.77,0,0,0,5.72-1.85,5.47,5.47,0,0,0,2.26-4.31,5.73,5.73,0,0,0-2.26-4.49,8.59,8.59,0,0,0-5.72-1.91,8.53,8.53,0,0,0-5.75,1.91A5.72,5.72,0,0,0,59.46,75.11Z"/><path class="cls-1" d="M108,82.91a1.85,1.85,0,0,1-1.12-.76,1.5,1.5,0,0,1-.11-1,1.21,1.21,0,0,1,1-.85,3.75,3.75,0,0,1,1.41,0,9.06,9.06,0,0,1,5.55,2.82,7.5,7.5,0,0,1,2,5.39,9.57,9.57,0,0,1-3.25,7,11.89,11.89,0,0,1-15.88,0,10,10,0,0,1-3.4-7.57,9.74,9.74,0,0,1,1.44-5.28,10.84,10.84,0,0,1,3.31-3.7H93.25c-1.09,0-1.64-.7-1.64-2.11s.61-2.06,1.82-2.06h23.29c1.25,0,1.88.69,1.88,2.06s-.63,2.11-1.88,2.11h-8a9.45,9.45,0,0,0-6.57,2.64,8.32,8.32,0,0,0-2.87,6.34,6,6,0,0,0,1.87,4.51,6.18,6.18,0,0,0,4.46,1.82,5.92,5.92,0,0,0,4.35-1.82,5.83,5.83,0,0,0,1.87-4,5.33,5.33,0,0,0-1-3.5A6.11,6.11,0,0,0,108,82.91ZM98.83,69.24l-1.47-1.35a2.28,2.28,0,0,1-.7-1.18A1.68,1.68,0,0,1,97,65.42a1.64,1.64,0,0,1,1.35-.55,2.75,2.75,0,0,1,1.23.26,16.81,16.81,0,0,0,5,1.79,31.72,31.72,0,0,0,5.28.38c1.29,0,1.93.69,1.93,2.06a1.75,1.75,0,0,1-.73,1.52,2.56,2.56,0,0,1-1.5.53l-5.1-.06A7.84,7.84,0,0,1,98.83,69.24Zm30.8,48.82H110.09c-3.6,0-5.4-1.71-5.4-5.11v-4.81a3,3,0,0,0-.52-2.14,4.28,4.28,0,0,0-1.65-.85,6.31,6.31,0,0,1-1.64-.68,1.21,1.21,0,0,1-.47-1.08c0-1.06.61-1.59,1.82-1.59h5q2.46,0,2.46,2.7v8.1c0,.82.35,1.23,1.06,1.23h19c1.21,0,1.82.7,1.82,2.11S130.88,118.06,129.63,118.06ZM129.16,66v16.2h7.16c1.25,0,1.88.72,1.88,2.17s-.63,2.11-1.88,2.11h-7.16V99.87q0,5.28-3.81,5.28h-1.18V69.88a3.43,3.43,0,0,0-.47-2.2,3.37,3.37,0,0,0-1.58-.79,9.46,9.46,0,0,1-1.88-.64,1.17,1.17,0,0,1-.7-1.12c0-1.06.66-1.58,2-1.58h5.23A2.12,2.12,0,0,1,129.16,66Z"/><path class="cls-1" d="M143.42,73.81c-1.21,0-1.82-.7-1.82-2.11s.61-2,1.82-2h18.25a1.88,1.88,0,0,1,1.73.91,2.87,2.87,0,0,1,.38,2q-1.17,6.23-7,13.15A50.6,50.6,0,0,1,143,97.11q-1.94,1.11-2.64-.21c-.47-.88-.22-1.65.76-2.31a48.45,48.45,0,0,0,11.3-10.83q4.31-5.9,5.42-10Zm9.45,34.33a10.76,10.76,0,0,1,3.43-8.1,12.45,12.45,0,0,1,16.84,0,11.28,11.28,0,0,1,0,16.2,12.45,12.45,0,0,1-16.84,0A10.76,10.76,0,0,1,152.87,108.14Zm5,0a6.81,6.81,0,0,0,2,5.16,6.86,6.86,0,0,0,9.56,0,7.6,7.6,0,0,0,0-10.32,6.86,6.86,0,0,0-9.56,0A6.81,6.81,0,0,0,157.91,108.14Zm13.91-38.26a3.5,3.5,0,0,0-.47-2.2,3.41,3.41,0,0,0-1.59-.79,9.34,9.34,0,0,1-1.87-.64,1.18,1.18,0,0,1-.71-1.12c0-1.06.67-1.58,2-1.58h5.22a2.12,2.12,0,0,1,2.4,2.4V78.8H184c1.25,0,1.88.73,1.88,2.17s-.63,2.12-1.88,2.12H176.8v8.27q0,5.28-3.81,5.28h-1.17Z"/><path class="cls-1" d="M190.89,80.8c-1.22,0-1.82-.71-1.82-2.12s.6-2.05,1.82-2.05h14.9a1.87,1.87,0,0,1,1.82,1,3,3,0,0,1,.12,2.32,35.27,35.27,0,0,1-4.35,9l7.1,8.33a2.73,2.73,0,0,1,.83,2,2.28,2.28,0,0,1-.88,1.73,2.58,2.58,0,0,1-1.88.41,3,3,0,0,1-1.76-1.23l-5.64-8.16a47.94,47.94,0,0,1-10,9.92c-1.33,1-2.33,1.08-3,.32s-.49-1.56.53-2.38a44.63,44.63,0,0,0,7.89-8.89,45.81,45.81,0,0,0,5.37-10.29Zm3.16-9.68-1.4-1.41a2.37,2.37,0,0,1-.71-1.18,1.73,1.73,0,0,1,.35-1.29,1.67,1.67,0,0,1,1.35-.55,2.76,2.76,0,0,1,1.24.26,17.23,17.23,0,0,0,4.43,1.76,21.42,21.42,0,0,0,4.43.41c1.29,0,1.93.69,1.93,2a1.76,1.76,0,0,1-.73,1.53,2.56,2.56,0,0,1-1.5.53l-4.1-.06A7.41,7.41,0,0,1,194.05,71.12Zm18-5.11H217q2.46,0,2.46,2.58v40.9q0,5.4-3.81,5.4h-1.12V90.07H209c-1.21,0-1.82-.69-1.82-2.06s.61-2.11,1.82-2.11h5.57V72.23a3.81,3.81,0,0,0-.38-2.11,3.17,3.17,0,0,0-1.55-.82,8.12,8.12,0,0,1-1.88-.74,1.19,1.19,0,0,1-.65-1.08C210.07,66.5,210.74,66,212.07,66ZM224,69.82a4.18,4.18,0,0,0-.38-2.2,3,3,0,0,0-1.67-.79,9.8,9.8,0,0,1-1.91-.61,1.13,1.13,0,0,1-.68-1.09c0-1.06.71-1.58,2.12-1.58h5c1.68,0,2.53.8,2.53,2.4V113q0,5.4-3.88,5.4H224Z"/></svg>