<?xml version="1.0" encoding="utf-8"?>
<!-- Generator: Adobe Illustrator 23.1.0, SVG Export Plug-In . SVG Version: 6.00 Build 0)  -->
<svg version="1.1" id="Layer_1" xmlns="http://www.w3.org/2000/svg" xmlns:xlink="http://www.w3.org/1999/xlink" x="0px" y="0px"
	 viewBox="0 0 1177 288.5" style="enable-background:new 0 0 1177 288.5;" xml:space="preserve">
<title>font2_hanriver</title>
<path d="M98.9,59.5c-1.4,15.8-6.7,33.4-15.9,52.7l57.5,57.8c3.2,2.9,5.1,6.9,5.5,11.2c0.5,4.5-0.6,7.8-3.4,10
	c-3.8,3-7.6,3.9-11.5,2.7c-4.1-1.3-7.7-3.8-10.3-7.2l-47-56.9c-0.2,0.6-0.5,1.2-0.9,1.8c-15.6,27.2-33.5,49.3-53.7,66.5
	c-4.4,3.6-8.4,4-12.1,1.3c-3.7-2.7-3.4-6.4,0.8-11.2c17.8-19.7,32.5-41.9,43.6-66.1C62.3,98.4,68.6,79,70.2,64
	c0.3-2.1-0.8-4.1-2.7-5.1c-2.6-1.4-5.5-2.4-8.4-3c-5.2-1-7.7-3.7-7.5-8.2s3.2-6.7,9-6.7h20.1c7.4,0,12.4,1.6,15,4.9
	C98.3,49.2,99.4,53.7,98.9,59.5z M175.3,34.1c0-5.6-0.8-9.2-2.4-10.9c-1.6-1.7-4.3-3-8.1-4c-3.3-0.8-6.5-1.9-9.6-3.3
	c-2.3-1-3.7-3.2-3.6-5.7c0-5.4,3.4-8.1,10.2-8.1h26.4c8.4,0,12.6,4.1,12.6,12.3v240.3c0,18.4-6.5,27.6-19.5,27.6h-6V119.8h-47.9
	c-6.2,0-9.3-3.6-9.3-10.8c0-7,3.1-10.5,9.3-10.5h47.9V34.1z"/>
<path d="M360.8,155.1c0,7.4-1,13.3-3,17.7h50c7,0,10.5,4.4,10.5,13.2v36.3c0,10.4-3.9,15.6-11.7,15.6H308v16.8
	c0,4.8,2.3,7.2,6.9,7.2H418c6.2,0,9.3,3.6,9.3,10.8c0,7-3.2,10.5-9.6,10.5H301.1c-12.4,0-18.6-7.4-18.6-22.2v-15.3
	c0-4.4-0.6-7.3-1.8-8.8c-1.6-1.8-3.7-3.1-6-3.8c-1.7-0.8-3.4-1.8-5-2.8c-1.7-1.1-2.5-3-2.5-5.6c0-5.2,2.7-7.8,8.1-7.8h117.5v-23.1
	H283.5c-6.2,0-9.3-3.4-9.3-10.2c0-7.2,3.1-10.8,9.3-10.8h52.1v-24.9h-93.5c-6,0-9-3.6-9-10.8c0-7,3-10.5,9-10.5h210.9
	c6.6,0,9.9,3.5,9.9,10.5c0,7.2-3.3,10.8-9.9,10.8h-92.3V155.1z M281.4,61c0-15.2,6.3-28.1,19-38.7C313,11.8,328.9,6.5,347.9,6.4
	c18.8,0,34.6,5.3,47.3,15.9C408,32.9,414.4,45.8,414.4,61c0,14.8-6.4,27.4-19.2,37.7c-12.8,10.4-28.6,15.6-47.3,15.6
	c-19,0-34.8-5.2-47.5-15.6S281.4,75.8,281.4,61z M307.1,61c0,8.4,3.8,15.7,11.4,22c7.6,6.3,17.4,9.4,29.4,9.4
	c11.8,0,21.5-3.1,29.2-9.4c7.7-6.3,11.5-13.6,11.5-22c0-8.8-3.8-16.4-11.5-22.9c-7.7-6.5-17.4-9.7-29.2-9.7c-12,0-21.8,3.2-29.4,9.7
	S307.2,52.2,307.1,61z"/>
<path d="M554.9,100.9c-3-1-4.9-2.3-5.7-3.9c-0.8-1.6-1-3.4-0.6-5.1c0.7-2.3,2.7-4,5.1-4.3c2.4-0.5,4.8-0.5,7.2-0.2
	c11.8,1.8,21.2,6.6,28.3,14.4c7,7.5,10.7,17.4,10.3,27.6c-0.2,13.6-5.7,25.5-16.6,35.8c-10.9,10.3-24.5,15.4-40.9,15.4
	c-14.9,0.2-29.3-5.4-40.1-15.6c-11.4-10.4-17.2-23.2-17.4-38.6c-0.2-9.5,2.4-18.9,7.3-27c5.1-8.6,10.7-14.9,16.9-18.9h-29.1
	c-5.6,0-8.4-3.6-8.4-10.8c0-7,3.1-10.5,9.3-10.5h119c6.4,0,9.6,3.5,9.6,10.5c0,7.2-3.2,10.8-9.6,10.8h-41
	c-12.6,0-23.8,4.5-33.5,13.5c-9.8,9-14.7,19.8-14.7,32.4c-0.2,8.7,3.2,17.1,9.5,23.1c6,6,14.2,9.4,22.8,9.3
	c8.3,0.1,16.3-3.3,22.1-9.3c6.2-6.2,9.4-13.1,9.6-20.7c0.2-7.4-1.4-13.3-4.9-17.8C565.7,106.2,560.6,102.7,554.9,100.9z M508.2,31.1
	l-7.5-6.9c-1.8-1.6-3-3.7-3.6-6c-0.4-2,0.2-4.2,1.8-6.6c1.7-2,4.3-3,6.9-2.8c2.2,0,4.3,0.4,6.3,1.4c9.2,4.8,17.7,7.8,25.5,9.1
	c8.9,1.4,18,2,27,2c6.6,0,9.9,3.5,9.9,10.5c0.2,3.1-1.3,6-3.8,7.8c-2.2,1.7-4.9,2.6-7.6,2.7l-26.1-0.3
	C525.3,41.9,515.8,38.3,508.2,31.1z M665.5,280.3h-99.8c-18.4,0-27.6-8.7-27.6-26.1v-24.6c0-5.6-0.9-9.2-2.7-10.9
	c-2.4-2-5.3-3.5-8.4-4.3c-2.9-0.8-5.8-1.9-8.4-3.4c-1.6-1.1-2.4-2.9-2.4-5.5c0-5.4,3.1-8.1,9.3-8.1H551c8.4,0,12.6,4.6,12.6,13.8
	v41.3c0,4.2,1.8,6.3,5.4,6.3h96.8c6.2,0,9.3,3.6,9.3,10.8S671.9,280.3,665.5,280.3z M663.1,14.3V97h36.5c6.4,0,9.6,3.7,9.6,11.1
	c0,7.2-3.2,10.8-9.6,10.8h-36.5v68.6c0,18-6.5,27-19.5,27h-6V34.4c0-5.8-0.8-9.5-2.4-11.2c-1.6-1.7-4.3-3-8.1-4
	c-3.3-0.7-6.5-1.9-9.6-3.3c-2.3-1-3.7-3.2-3.6-5.7c0-5.4,3.4-8.1,10.2-8.1h26.7C659,2,663.1,6.1,663.1,14.3L663.1,14.3z"/>
<path d="M735.9,54.5c-6.2,0-9.3-3.6-9.3-10.8c0-7,3.1-10.5,9.3-10.5h93.2c4,0,6.9,1.5,8.8,4.6c1.9,3.1,2.6,6.8,2,10.3
	c-4,21.2-16,43.5-36,67.1c-19.7,23.4-43.5,43.1-70.1,58.1c-6.6,3.8-11.1,3.4-13.5-1.1c-2.4-4.5-1.1-8.5,3.9-11.9
	c23.8-16.7,43-35.2,57.7-55.2s23.9-37,27.7-50.8H735.9z M784.1,229.7c0-16.4,5.8-30.2,17.5-41.4s26-16.8,43-16.8
	c17,0,31.3,5.6,43,16.8s17.5,25,17.5,41.4c0,16.4-5.8,30.2-17.5,41.3s-26,16.8-43,16.8c-17,0-31.3-5.6-43-16.8
	S784.1,246.1,784.1,229.7L784.1,229.7z M809.9,229.7c0,11,3.4,19.8,10.3,26.4c13.6,13.2,35.2,13.2,48.8,0
	c6.9-6.6,10.3-15.4,10.3-26.4c0-11-3.4-19.8-10.3-26.4c-13.6-13.2-35.2-13.2-48.8,0C813.4,209.9,809.9,218.7,809.9,229.7
	L809.9,229.7z M880.9,34.4c0-5.8-0.8-9.5-2.4-11.2c-1.6-1.7-4.3-3-8.1-4c-3.3-0.7-6.5-1.9-9.6-3.3c-2.3-1-3.7-3.2-3.6-5.7
	c0-5.4,3.4-8.1,10.2-8.1h26.7c8.2,0,12.3,4.1,12.3,12.3v65.6h36.5c6.4,0,9.6,3.7,9.6,11.1c0,7.2-3.2,10.8-9.6,10.8h-36.5V144
	c0,18-6.5,27-19.5,27h-6L880.9,34.4z"/>
<path d="M978.3,90.1c-6.2,0-9.3-3.6-9.3-10.8c0-7,3.1-10.5,9.3-10.5h76.1c4.4,0,7.5,1.7,9.3,5.2s2,7.4,0.6,11.8
	c-5.2,16.4-12.6,31.9-22.2,46.1l36.3,42.6c3,3.2,4.4,6.6,4.2,10.3c-0.1,3.5-1.7,6.7-4.5,8.8c-2.8,1.9-6.2,2.7-9.6,2.1
	c-3.2-0.6-6.2-2.7-9-6.3l-28.8-41.6c-15.8,20.6-32.9,37.5-51.2,50.6c-6.8,5-11.9,5.5-15.3,1.6c-3.4-3.9-2.5-7.9,2.7-12.1
	c15.4-13.3,28.9-28.5,40.3-45.4c12.1-17.7,21.2-35.2,27.4-52.6L978.3,90.1z M994.5,40.7l-7.2-7.2c-1.8-1.6-3-3.7-3.6-6
	c-0.4-2,0.2-4.2,1.8-6.6c1.7-2,4.3-3,6.9-2.8c2.2,0,4.3,0.4,6.3,1.3c8.6,4.6,16.1,7.6,22.6,9c7.4,1.5,15,2.2,22.6,2.1
	c6.6,0,9.9,3.5,9.9,10.5c0.2,3.1-1.3,6-3.8,7.8c-2.2,1.7-4.9,2.6-7.6,2.7l-21-0.3C1010.8,51.1,1001.9,47.6,994.5,40.7z M1086.5,14.6
	h25.2c8.4,0,12.6,4.4,12.6,13.2v208.8c0,18.4-6.5,27.6-19.5,27.6h-5.7V137.4h-28.5c-6.2,0-9.3-3.5-9.3-10.5c0-7.2,3.1-10.8,9.3-10.8
	h28.5V46.3c0-5.6-0.7-9.2-1.9-10.8c-1.3-1.6-3.9-3-7.9-4.2c-3.3-0.9-6.6-2.1-9.6-3.8c-2.1-1.1-3.3-3.2-3.3-5.5
	C1076.3,17.1,1079.7,14.6,1086.5,14.6L1086.5,14.6z M1147.3,34.1c0-5.8-0.6-9.5-1.9-11.2c-1.3-1.7-4.1-3-8.5-4
	c-3.3-0.7-6.6-1.8-9.7-3.2c-2.2-0.9-3.6-3.2-3.4-5.5c0-5.4,3.6-8.1,10.8-8.1h25.5c8.6,0,12.9,4.1,12.9,12.3v240.2
	c0,18.4-6.6,27.6-19.8,27.6h-5.7L1147.3,34.1z"/>
</svg>
