<svg width="30" height="30" viewBox="0 0 30 30" fill="none" xmlns="http://www.w3.org/2000/svg">
<path d="M30 0H0V30H30V0Z" fill="#3396D4"/>
<path d="M11.5214 22.6192C18.5963 22.6192 22.4664 16.7561 22.4664 11.6743C22.4664 11.5086 22.4636 11.343 22.4553 11.1774C23.2061 10.6336 23.8604 9.95729 24.3738 9.18714C23.6837 9.49354 22.9439 9.70057 22.1655 9.79166C22.9605 9.31687 23.5705 8.56329 23.8576 7.6634C23.115 8.10506 22.2924 8.42527 21.4146 8.59641C20.7135 7.84834 19.7142 7.38184 18.6073 7.38184C16.4818 7.38184 14.7593 9.10432 14.7593 11.2271C14.7593 11.528 14.7924 11.8233 14.8587 12.1049C11.6622 11.9448 8.82723 10.4128 6.93084 8.08574C6.59959 8.65438 6.40912 9.31411 6.40912 10.018C6.40912 11.3513 7.08818 12.53 8.12057 13.2201C7.48844 13.2008 6.89771 13.0268 6.37876 12.7398C6.37876 12.7563 6.37876 12.7729 6.37876 12.7895C6.37876 14.6527 7.70375 16.2068 9.46488 16.5602C9.14192 16.6485 8.80239 16.6954 8.45182 16.6954C8.20338 16.6954 7.96323 16.6706 7.72859 16.6264C8.21718 18.1557 9.63879 19.2681 11.3226 19.2985C10.0059 20.3309 8.34692 20.9464 6.54438 20.9464C6.23522 20.9464 5.92881 20.9299 5.62793 20.894C7.32557 21.9816 9.34895 22.6192 11.5214 22.6192Z" fill="white"/>
</svg>
